<svg width="67" height="66" viewBox="0 0 67 66" fill="none" xmlns="http://www.w3.org/2000/svg">
<g filter="url(#filter0_i_7_116)">
<path fill-rule="evenodd" clip-rule="evenodd" d="M42.9147 10.2292C42.9932 10.3077 43.0449 10.4091 43.0624 10.5188C43.2791 13.0807 43.0582 15.6609 42.409 18.1487L35.0636 10.7243C37.5293 10.0819 40.0864 9.86448 42.6251 10.0814C42.7348 10.0989 42.8361 10.1506 42.9147 10.2292ZM24.1825 17.8325L17.069 29.2037C17.0054 29.3048 16.978 29.4246 16.9914 29.5433C17.0048 29.662 17.0582 29.7727 17.1427 29.8571L23.2867 36.0011C23.3355 36.0509 23.3937 36.0905 23.458 36.1176C23.5222 36.1448 23.5911 36.1589 23.6609 36.1592C23.7603 36.1597 23.8576 36.1304 23.9401 36.0749L35.3482 28.9297C38.564 26.5218 40.9285 23.1514 42.0981 19.3079L33.9044 11.0457C30.0227 12.2128 26.616 14.591 24.1825 17.8325Z" fill="url(#paint0_linear_7_116)"/>
</g>
<g filter="url(#filter1_bdiii_7_116)">
<path d="M-nan -nanL18.1019 34.2306L15.4672 36.8653C15.4178 36.9143 15.3786 36.9725 15.3519 37.0367C15.3251 37.101 15.3113 37.1698 15.3113 37.2394C15.3113 37.309 15.3251 37.3778 15.3519 37.442C15.3786 37.5062 15.4178 37.5645 15.4672 37.6135C15.5164 37.6623 15.5748 37.701 15.639 37.7272C15.7032 37.7534 15.772 37.7667 15.8413 37.7663C15.9796 37.7657 16.112 37.7109 16.2102 37.6135L18.8448 34.9789C18.8942 34.9299 18.9334 34.8716 18.9602 34.8074C18.9869 34.7432 19.0007 34.6743 19.0007 34.6047C19.0007 34.5352 18.9869 34.4663 18.9602 34.4021C18.9334 34.3379 18.8942 34.2796 18.8448 34.2306C18.7461 34.1325 18.6125 34.0774 18.4733 34.0774C18.3341 34.0774 18.2006 34.1325 18.1019 34.2306L-nan -nanZ" fill="url(#paint1_linear_7_116)" fill-opacity="0.21"/>
<path d="M-nan -nanL18.1019 34.2306L15.4672 36.8653C15.4178 36.9143 15.3786 36.9725 15.3519 37.0367C15.3251 37.101 15.3113 37.1698 15.3113 37.2394C15.3113 37.309 15.3251 37.3778 15.3519 37.442C15.3786 37.5062 15.4178 37.5645 15.4672 37.6135C15.5164 37.6623 15.5748 37.701 15.639 37.7272C15.7032 37.7534 15.772 37.7667 15.8413 37.7663C15.9796 37.7657 16.112 37.7109 16.2102 37.6135L18.8448 34.9789C18.8942 34.9299 18.9334 34.8716 18.9602 34.8074C18.9869 34.7432 19.0007 34.6743 19.0007 34.6047C19.0007 34.5352 18.9869 34.4663 18.9602 34.4021C18.9334 34.3379 18.8942 34.2796 18.8448 34.2306C18.7461 34.1325 18.6125 34.0774 18.4733 34.0774C18.3341 34.0774 18.2006 34.1325 18.1019 34.2306L-nan -nanZ" fill="#D7FFC2" fill-opacity="0.1"/>
</g>
<g filter="url(#filter2_bdii_7_116)">
<path fill-rule="evenodd" clip-rule="evenodd" d="M17.9158 29.448C17.9198 29.4439 17.9205 29.4376 17.9173 29.4328C17.9143 29.4283 17.9146 29.4223 17.9182 29.4183C17.9643 29.3663 18.0203 29.3239 18.083 29.2936C18.1483 29.262 18.2195 29.2442 18.2921 29.2414C18.3647 29.2386 18.437 29.2508 18.5046 29.2773C18.5723 29.3038 18.6337 29.344 18.685 29.3953C18.7364 29.4467 18.7766 29.5081 18.8031 29.5757C18.8295 29.6433 18.8418 29.7157 18.839 29.7883C18.8362 29.8608 18.8184 29.932 18.7868 29.9974C18.7551 30.0628 18.7103 30.1209 18.6552 30.1682L17.4801 31.3432C17.3868 31.4471 17.256 31.5096 17.1165 31.5171C17.0123 31.5167 16.9106 31.4853 16.8242 31.4271C16.7378 31.3688 16.6706 31.2862 16.6311 31.1898C16.5916 31.0933 16.5816 30.9874 16.6024 30.8852C16.6231 30.7831 16.6737 30.6894 16.7477 30.616L17.9158 29.448ZM12.274 39.9585L15.8993 36.3174C15.9985 36.2161 16.1339 36.1583 16.2757 36.1568C16.4175 36.1554 16.5541 36.2103 16.6554 36.3095C16.7568 36.4087 16.8145 36.5441 16.816 36.6859C16.8175 36.8277 16.7626 36.9643 16.6633 37.0656L13.017 40.7067C12.9178 40.8052 12.7835 40.8603 12.6436 40.8598C12.5038 40.8593 12.3699 40.8033 12.2714 40.7041C12.1729 40.6049 12.1178 40.4706 12.1183 40.3307C12.1188 40.1909 12.1748 40.057 12.274 39.9585ZM20.0578 32.5116C20.061 32.5164 20.0604 32.5228 20.0563 32.5268L18.8882 33.6949C18.8142 33.7683 18.7637 33.8619 18.7429 33.9641C18.7222 34.0662 18.7322 34.1722 18.7716 34.2686C18.8111 34.3651 18.8783 34.4477 18.9647 34.5059C19.0511 34.5642 19.1529 34.5955 19.2571 34.5959C19.3965 34.5884 19.5273 34.5259 19.6207 34.422L20.7957 33.247C20.8509 33.1998 20.8957 33.1416 20.9273 33.0763C20.9589 33.0109 20.9767 32.9397 20.9795 32.8671C20.9823 32.7945 20.9701 32.7222 20.9436 32.6546C20.9171 32.5869 20.8769 32.5255 20.8256 32.4742C20.7742 32.4228 20.7128 32.3826 20.6452 32.3561C20.5776 32.3297 20.5052 32.3174 20.4326 32.3202C20.3601 32.323 20.2889 32.3408 20.2235 32.3724C20.1608 32.4027 20.1049 32.4451 20.0587 32.4971C20.0552 32.5012 20.0548 32.5071 20.0578 32.5116ZM22.848 34.3799C22.8519 34.3759 22.8581 34.3753 22.8627 34.3784C22.8672 34.3814 22.8733 34.3808 22.8773 34.377C22.9758 34.2826 23.1072 34.23 23.2439 34.2305C23.3837 34.231 23.5176 34.287 23.6161 34.3862C23.7147 34.4854 23.7697 34.6197 23.7692 34.7596C23.7687 34.8994 23.7127 35.0333 23.6135 35.1318L22.4384 36.3069C22.3403 36.4042 22.2078 36.4591 22.0696 36.4597C22.0002 36.4601 21.9315 36.4468 21.8673 36.4206C21.8031 36.3944 21.7447 36.3557 21.6955 36.3069C21.6461 36.2579 21.6069 36.1996 21.5801 36.1354C21.5534 36.0712 21.5396 36.0023 21.5396 35.9328C21.5396 35.8632 21.5534 35.7943 21.5801 35.7301C21.6069 35.6659 21.6461 35.6076 21.6955 35.5586L22.848 34.3799ZM19.4034 37.8297L17.2377 39.9901C17.1883 40.0391 17.1491 40.0974 17.1223 40.1616C17.0956 40.2258 17.0818 40.2947 17.0818 40.3642C17.0818 40.4338 17.0956 40.5027 17.1223 40.5669C17.1491 40.6311 17.1883 40.6894 17.2377 40.7384C17.2869 40.7872 17.3453 40.8258 17.4095 40.852C17.4737 40.8783 17.5424 40.8916 17.6118 40.8912C17.6811 40.8916 17.7499 40.8783 17.8141 40.852C17.8783 40.8258 17.9367 40.7872 17.9859 40.7384L20.1463 38.5727C20.2327 38.4719 20.2778 38.3422 20.2726 38.2096C20.2675 38.077 20.2125 37.9512 20.1187 37.8573C20.0249 37.7635 19.8991 37.7085 19.7664 37.7034C19.6338 37.6983 19.5042 37.7434 19.4034 37.8297ZM11.5915 35.5356L13.7572 33.3752C13.858 33.2889 13.9877 33.2438 14.1203 33.2489C14.2529 33.254 14.3787 33.309 14.4726 33.4028C14.5664 33.4967 14.6214 33.6225 14.6265 33.7551C14.6316 33.8877 14.5865 34.0174 14.5002 34.1182L12.3398 36.2839C12.2905 36.3327 12.2321 36.3713 12.1679 36.3976C12.1037 36.4238 12.035 36.4371 11.9657 36.4367C11.8963 36.4371 11.8276 36.4238 11.7634 36.3976C11.6992 36.3713 11.6408 36.3327 11.5915 36.2839C11.5421 36.2349 11.5029 36.1766 11.4762 36.1124C11.4494 36.0482 11.4357 35.9793 11.4357 35.9097C11.4357 35.8402 11.4494 35.7713 11.4762 35.7071C11.5029 35.6429 11.5421 35.5846 11.5915 35.5356Z" fill="url(#paint2_linear_7_116)" fill-opacity="0.1"/>
</g>
<g filter="url(#filter3_i_7_116)">
<path fill-rule="evenodd" clip-rule="evenodd" d="M42.9147 10.2292C42.9932 10.3077 43.0449 10.4091 43.0624 10.5188C43.2791 13.0807 43.0582 15.6609 42.409 18.1487L35.0636 10.7243C37.5293 10.0819 40.0864 9.86448 42.6251 10.0814C42.7348 10.0989 42.8361 10.1506 42.9147 10.2292ZM24.1825 17.8325L17.069 29.2037C17.0054 29.3048 16.978 29.4246 16.9914 29.5433C17.0048 29.662 17.0582 29.7727 17.1427 29.8571L23.2867 36.0011C23.3355 36.0509 23.3937 36.0905 23.458 36.1176C23.5222 36.1448 23.5911 36.1589 23.6609 36.1592C23.7603 36.1597 23.8576 36.1304 23.9401 36.0749L35.3482 28.9297C38.564 26.5218 40.9285 23.1514 42.0981 19.3079L33.9044 11.0457C30.0227 12.2128 26.616 14.591 24.1825 17.8325Z" fill="url(#paint3_linear_7_116)"/>
</g>
<path d="M28.2259 32.4049C26.7077 33.6573 26.1947 35.708 26.1622 37.6758C26.1347 39.3412 25.7144 40.9923 24.9153 42.4884C24.8519 42.5913 24.8259 42.7129 24.8415 42.8328C24.8571 42.9526 24.9134 43.0635 25.0011 43.1467C25.0572 43.1987 25.124 43.2379 25.1968 43.2614C25.2696 43.285 25.3467 43.2924 25.4227 43.2831C25.5103 43.2722 25.5937 43.2394 25.6653 43.1878C27.7487 41.6936 31.342 38.726 33.2021 34.9316C34.7635 31.7465 30.9624 30.1477 28.2259 32.4049Z" fill="url(#paint4_linear_7_116)" fill-opacity="0.09"/>
<path d="M28.2259 32.4049C26.7077 33.6573 26.1947 35.708 26.1622 37.6758C26.1347 39.3412 25.7144 40.9923 24.9153 42.4884C24.8519 42.5913 24.8259 42.7129 24.8415 42.8328C24.8571 42.9526 24.9134 43.0635 25.0011 43.1467C25.0572 43.1987 25.124 43.2379 25.1968 43.2614C25.2696 43.285 25.3467 43.2924 25.4227 43.2831C25.5103 43.2722 25.5937 43.2394 25.6653 43.1878C27.7487 41.6936 31.342 38.726 33.2021 34.9316C34.7635 31.7465 30.9624 30.1477 28.2259 32.4049Z" fill="#0011A7" fill-opacity="0.05"/>
<g filter="url(#filter4_biii_7_116)">
<path d="M21.0186 25.5031C19.7316 26.9921 17.6697 27.4577 15.7016 27.4449C14.036 27.4341 12.3757 27.8164 10.8616 28.5808C10.7573 28.6418 10.6351 28.6651 10.5156 28.6467C10.3961 28.6284 10.2866 28.5695 10.2054 28.4799C10.1547 28.4226 10.1171 28.3549 10.0952 28.2816C10.0734 28.2083 10.0677 28.131 10.0787 28.0553C10.0917 27.968 10.1264 27.8853 10.1796 27.8149C11.7214 25.7664 14.7708 22.2424 18.607 20.4701C21.8273 18.9823 23.3382 22.8192 21.0186 25.5031Z" fill="url(#paint5_linear_7_116)" fill-opacity="0.09"/>
<path d="M21.0186 25.5031C19.7316 26.9921 17.6697 27.4577 15.7016 27.4449C14.036 27.4341 12.3757 27.8164 10.8616 28.5808C10.7573 28.6418 10.6351 28.6651 10.5156 28.6467C10.3961 28.6284 10.2866 28.5695 10.2054 28.4799C10.1547 28.4226 10.1171 28.3549 10.0952 28.2816C10.0734 28.2083 10.0677 28.131 10.0787 28.0553C10.0917 27.968 10.1264 27.8853 10.1796 27.8149C11.7214 25.7664 14.7708 22.2424 18.607 20.4701C21.8273 18.9823 23.3382 22.8192 21.0186 25.5031Z" fill="#0011A7" fill-opacity="0.05"/>
</g>
<g filter="url(#filter5_bdiii_7_116)">
<path d="M-nan -nanL18.1019 34.2306L15.4672 36.8653C15.4178 36.9143 15.3786 36.9725 15.3519 37.0367C15.3251 37.101 15.3113 37.1698 15.3113 37.2394C15.3113 37.309 15.3251 37.3778 15.3519 37.442C15.3786 37.5062 15.4178 37.5645 15.4672 37.6135C15.5164 37.6623 15.5748 37.701 15.639 37.7272C15.7032 37.7534 15.772 37.7667 15.8413 37.7663C15.9796 37.7657 16.112 37.7109 16.2102 37.6135L18.8448 34.9789C18.8942 34.9299 18.9334 34.8716 18.9602 34.8074C18.9869 34.7432 19.0007 34.6743 19.0007 34.6047C19.0007 34.5352 18.9869 34.4663 18.9602 34.4021C18.9334 34.3379 18.8942 34.2796 18.8448 34.2306C18.7461 34.1325 18.6125 34.0774 18.4733 34.0774C18.3341 34.0774 18.2006 34.1325 18.1019 34.2306L-nan -nanZ" fill="url(#paint6_linear_7_116)" fill-opacity="0.21"/>
<path d="M-nan -nanL18.1019 34.2306L15.4672 36.8653C15.4178 36.9143 15.3786 36.9725 15.3519 37.0367C15.3251 37.101 15.3113 37.1698 15.3113 37.2394C15.3113 37.309 15.3251 37.3778 15.3519 37.442C15.3786 37.5062 15.4178 37.5645 15.4672 37.6135C15.5164 37.6623 15.5748 37.701 15.639 37.7272C15.7032 37.7534 15.772 37.7667 15.8413 37.7663C15.9796 37.7657 16.112 37.7109 16.2102 37.6135L18.8448 34.9789C18.8942 34.9299 18.9334 34.8716 18.9602 34.8074C18.9869 34.7432 19.0007 34.6743 19.0007 34.6047C19.0007 34.5352 18.9869 34.4663 18.9602 34.4021C18.9334 34.3379 18.8942 34.2796 18.8448 34.2306C18.7461 34.1325 18.6125 34.0774 18.4733 34.0774C18.3341 34.0774 18.2006 34.1325 18.1019 34.2306L-nan -nanZ" fill="#D7FFC2" fill-opacity="0.1"/>
</g>
<g filter="url(#filter6_bdii_7_116)">
<path fill-rule="evenodd" clip-rule="evenodd" d="M17.9158 29.448C17.9198 29.4439 17.9205 29.4376 17.9173 29.4328C17.9143 29.4283 17.9146 29.4223 17.9182 29.4183C17.9643 29.3663 18.0203 29.3239 18.083 29.2936C18.1483 29.262 18.2195 29.2442 18.2921 29.2414C18.3647 29.2386 18.437 29.2508 18.5046 29.2773C18.5723 29.3038 18.6337 29.344 18.685 29.3953C18.7364 29.4467 18.7766 29.5081 18.8031 29.5757C18.8295 29.6433 18.8418 29.7157 18.839 29.7883C18.8362 29.8608 18.8184 29.932 18.7868 29.9974C18.7551 30.0628 18.7103 30.1209 18.6552 30.1682L17.4801 31.3432C17.3868 31.4471 17.256 31.5096 17.1165 31.5171C17.0123 31.5167 16.9106 31.4853 16.8242 31.4271C16.7378 31.3688 16.6706 31.2862 16.6311 31.1898C16.5916 31.0933 16.5816 30.9874 16.6024 30.8852C16.6231 30.7831 16.6737 30.6894 16.7477 30.616L17.9158 29.448ZM12.274 39.9585L15.8993 36.3174C15.9985 36.2161 16.1339 36.1583 16.2757 36.1568C16.4175 36.1554 16.5541 36.2103 16.6554 36.3095C16.7568 36.4087 16.8145 36.5441 16.816 36.6859C16.8175 36.8277 16.7626 36.9643 16.6633 37.0656L13.017 40.7067C12.9178 40.8052 12.7835 40.8603 12.6436 40.8598C12.5038 40.8593 12.3699 40.8033 12.2714 40.7041C12.1729 40.6049 12.1178 40.4706 12.1183 40.3307C12.1188 40.1909 12.1748 40.057 12.274 39.9585ZM20.0578 32.5116C20.061 32.5164 20.0604 32.5228 20.0563 32.5268L18.8882 33.6949C18.8142 33.7683 18.7637 33.8619 18.7429 33.9641C18.7222 34.0662 18.7322 34.1722 18.7716 34.2686C18.8111 34.3651 18.8783 34.4477 18.9647 34.5059C19.0511 34.5642 19.1529 34.5955 19.2571 34.5959C19.3965 34.5884 19.5273 34.5259 19.6207 34.422L20.7957 33.247C20.8509 33.1998 20.8957 33.1416 20.9273 33.0763C20.9589 33.0109 20.9767 32.9397 20.9795 32.8671C20.9823 32.7945 20.9701 32.7222 20.9436 32.6546C20.9171 32.5869 20.8769 32.5255 20.8256 32.4742C20.7742 32.4228 20.7128 32.3826 20.6452 32.3561C20.5776 32.3297 20.5052 32.3174 20.4326 32.3202C20.3601 32.323 20.2889 32.3408 20.2235 32.3724C20.1608 32.4027 20.1049 32.4451 20.0587 32.4971C20.0552 32.5012 20.0548 32.5071 20.0578 32.5116ZM22.848 34.3799C22.8519 34.3759 22.8581 34.3753 22.8627 34.3784C22.8672 34.3814 22.8733 34.3808 22.8773 34.377C22.9758 34.2826 23.1072 34.23 23.2439 34.2305C23.3837 34.231 23.5176 34.287 23.6161 34.3862C23.7147 34.4854 23.7697 34.6197 23.7692 34.7596C23.7687 34.8994 23.7127 35.0333 23.6135 35.1318L22.4384 36.3069C22.3403 36.4042 22.2078 36.4591 22.0696 36.4597C22.0002 36.4601 21.9315 36.4468 21.8673 36.4206C21.8031 36.3944 21.7447 36.3557 21.6955 36.3069C21.6461 36.2579 21.6069 36.1996 21.5801 36.1354C21.5534 36.0712 21.5396 36.0023 21.5396 35.9328C21.5396 35.8632 21.5534 35.7943 21.5801 35.7301C21.6069 35.6659 21.6461 35.6076 21.6955 35.5586L22.848 34.3799ZM19.4034 37.8297L17.2377 39.9901C17.1883 40.0391 17.1491 40.0974 17.1223 40.1616C17.0956 40.2258 17.0818 40.2947 17.0818 40.3642C17.0818 40.4338 17.0956 40.5027 17.1223 40.5669C17.1491 40.6311 17.1883 40.6894 17.2377 40.7384C17.2869 40.7872 17.3453 40.8258 17.4095 40.852C17.4737 40.8783 17.5424 40.8916 17.6118 40.8912C17.6811 40.8916 17.7499 40.8783 17.8141 40.852C17.8783 40.8258 17.9367 40.7872 17.9859 40.7384L20.1463 38.5727C20.2327 38.4719 20.2778 38.3422 20.2726 38.2096C20.2675 38.077 20.2125 37.9512 20.1187 37.8573C20.0249 37.7635 19.8991 37.7085 19.7664 37.7034C19.6338 37.6983 19.5042 37.7434 19.4034 37.8297ZM11.5915 35.5356L13.7572 33.3752C13.858 33.2889 13.9877 33.2438 14.1203 33.2489C14.2529 33.254 14.3787 33.309 14.4726 33.4028C14.5664 33.4967 14.6214 33.6225 14.6265 33.7551C14.6316 33.8877 14.5865 34.0174 14.5002 34.1182L12.3398 36.2839C12.2905 36.3327 12.2321 36.3713 12.1679 36.3976C12.1037 36.4238 12.035 36.4371 11.9657 36.4367C11.8963 36.4371 11.8276 36.4238 11.7634 36.3976C11.6992 36.3713 11.6408 36.3327 11.5915 36.2839C11.5421 36.2349 11.5029 36.1766 11.4762 36.1124C11.4494 36.0482 11.4357 35.9793 11.4357 35.9097C11.4357 35.8402 11.4494 35.7713 11.4762 35.7071C11.5029 35.6429 11.5421 35.5846 11.5915 35.5356Z" fill="url(#paint7_linear_7_116)" fill-opacity="0.1"/>
</g>
<g filter="url(#filter7_bdii_7_116)">
<circle cx="33.1931" cy="19.4193" r="3.98" fill="url(#paint8_linear_7_116)" fill-opacity="0.21"/>
<circle cx="33.1931" cy="19.4193" r="3.98" fill="#D8FFC5" fill-opacity="0.26"/>
</g>
<defs>
<filter id="filter0_i_7_116" x="16.9881" y="7" width="35.1549" height="29.1592" filterUnits="userSpaceOnUse" color-interpolation-filters="sRGB">
<feFlood flood-opacity="0" result="BackgroundImageFix"/>
<feBlend mode="normal" in="SourceGraphic" in2="BackgroundImageFix" result="shape"/>
<feColorMatrix in="SourceAlpha" type="matrix" values="0 0 0 0 0 0 0 0 0 0 0 0 0 0 0 0 0 0 127 0" result="hardAlpha"/>
<feOffset dx="9" dy="-3"/>
<feGaussianBlur stdDeviation="10"/>
<feComposite in2="hardAlpha" operator="arithmetic" k2="-1" k3="1"/>
<feColorMatrix type="matrix" values="0 0 0 0 0 0 0 0 0 0 0 0 0 0 0 0 0 0 0.17 0"/>
<feBlend mode="normal" in2="shape" result="effect1_innerShadow_7_116"/>
</filter>
<filter id="filter1_bdiii_7_116" x="-4.68866" y="14.0774" width="52.6893" height="48.6889" filterUnits="userSpaceOnUse" color-interpolation-filters="sRGB">
<feFlood flood-opacity="0" result="BackgroundImageFix"/>
<feGaussianBlur in="BackgroundImage" stdDeviation="10"/>
<feComposite in2="SourceAlpha" operator="in" result="effect1_backgroundBlur_7_116"/>
<feColorMatrix in="SourceAlpha" type="matrix" values="0 0 0 0 0 0 0 0 0 0 0 0 0 0 0 0 0 0 127 0" result="hardAlpha"/>
<feOffset dx="9" dy="5"/>
<feGaussianBlur stdDeviation="10"/>
<feColorMatrix type="matrix" values="0 0 0 0 0.0690278 0 0 0 0 0.295833 0 0 0 0 0.11166 0 0 0 0.08 0"/>
<feBlend mode="normal" in2="effect1_backgroundBlur_7_116" result="effect2_dropShadow_7_116"/>
<feBlend mode="normal" in="SourceGraphic" in2="effect2_dropShadow_7_116" result="shape"/>
<feColorMatrix in="SourceAlpha" type="matrix" values="0 0 0 0 0 0 0 0 0 0 0 0 0 0 0 0 0 0 127 0" result="hardAlpha"/>
<feOffset dx="-10" dy="10"/>
<feGaussianBlur stdDeviation="5"/>
<feComposite in2="hardAlpha" operator="arithmetic" k2="-1" k3="1"/>
<feColorMatrix type="matrix" values="0 0 0 0 1 0 0 0 0 1 0 0 0 0 1 0 0 0 0.15 0"/>
<feBlend mode="normal" in2="shape" result="effect3_innerShadow_7_116"/>
<feColorMatrix in="SourceAlpha" type="matrix" values="0 0 0 0 0 0 0 0 0 0 0 0 0 0 0 0 0 0 127 0" result="hardAlpha"/>
<feOffset dy="-10"/>
<feGaussianBlur stdDeviation="5"/>
<feComposite in2="hardAlpha" operator="arithmetic" k2="-1" k3="1"/>
<feColorMatrix type="matrix" values="0 0 0 0 0.156863 0 0 0 0 0.67451 0 0 0 0 0.25098 0 0 0 0.3 0"/>
<feBlend mode="normal" in2="effect3_innerShadow_7_116" result="effect4_innerShadow_7_116"/>
<feColorMatrix in="SourceAlpha" type="matrix" values="0 0 0 0 0 0 0 0 0 0 0 0 0 0 0 0 0 0 127 0" result="hardAlpha"/>
<feOffset dx="-3" dy="6"/>
<feGaussianBlur stdDeviation="7.5"/>
<feComposite in2="hardAlpha" operator="arithmetic" k2="-1" k3="1"/>
<feColorMatrix type="matrix" values="0 0 0 0 0.0770313 0 0 0 0 0.6375 0 0 0 0 0.178935 0 0 0 0.09 0"/>
<feBlend mode="normal" in2="effect4_innerShadow_7_116" result="effect5_innerShadow_7_116"/>
</filter>
<filter id="filter2_bdii_7_116" x="-8.56433" y="9.241" width="61.3336" height="56.6502" filterUnits="userSpaceOnUse" color-interpolation-filters="sRGB">
<feFlood flood-opacity="0" result="BackgroundImageFix"/>
<feGaussianBlur in="BackgroundImage" stdDeviation="10"/>
<feComposite in2="SourceAlpha" operator="in" result="effect1_backgroundBlur_7_116"/>
<feColorMatrix in="SourceAlpha" type="matrix" values="0 0 0 0 0 0 0 0 0 0 0 0 0 0 0 0 0 0 127 0" result="hardAlpha"/>
<feOffset dx="9" dy="5"/>
<feGaussianBlur stdDeviation="10"/>
<feColorMatrix type="matrix" values="0 0 0 0 0.0690278 0 0 0 0 0.295833 0 0 0 0 0.11166 0 0 0 0.08 0"/>
<feBlend mode="normal" in2="effect1_backgroundBlur_7_116" result="effect2_dropShadow_7_116"/>
<feBlend mode="normal" in="SourceGraphic" in2="effect2_dropShadow_7_116" result="shape"/>
<feColorMatrix in="SourceAlpha" type="matrix" values="0 0 0 0 0 0 0 0 0 0 0 0 0 0 0 0 0 0 127 0" result="hardAlpha"/>
<feOffset/>
<feGaussianBlur stdDeviation="5"/>
<feComposite in2="hardAlpha" operator="arithmetic" k2="-1" k3="1"/>
<feColorMatrix type="matrix" values="0 0 0 0 0.156863 0 0 0 0 0.67451 0 0 0 0 0.25098 0 0 0 0.2 0"/>
<feBlend mode="normal" in2="shape" result="effect3_innerShadow_7_116"/>
<feColorMatrix in="SourceAlpha" type="matrix" values="0 0 0 0 0 0 0 0 0 0 0 0 0 0 0 0 0 0 127 0" result="hardAlpha"/>
<feOffset dx="-3" dy="6"/>
<feGaussianBlur stdDeviation="7.5"/>
<feComposite in2="hardAlpha" operator="arithmetic" k2="-1" k3="1"/>
<feColorMatrix type="matrix" values="0 0 0 0 0.0770313 0 0 0 0 0.6375 0 0 0 0 0.178935 0 0 0 0.09 0"/>
<feBlend mode="normal" in2="effect3_innerShadow_7_116" result="effect4_innerShadow_7_116"/>
</filter>
<filter id="filter3_i_7_116" x="16.9881" y="7" width="35.1549" height="29.1592" filterUnits="userSpaceOnUse" color-interpolation-filters="sRGB">
<feFlood flood-opacity="0" result="BackgroundImageFix"/>
<feBlend mode="normal" in="SourceGraphic" in2="BackgroundImageFix" result="shape"/>
<feColorMatrix in="SourceAlpha" type="matrix" values="0 0 0 0 0 0 0 0 0 0 0 0 0 0 0 0 0 0 127 0" result="hardAlpha"/>
<feOffset dx="9" dy="-3"/>
<feGaussianBlur stdDeviation="10"/>
<feComposite in2="hardAlpha" operator="arithmetic" k2="-1" k3="1"/>
<feColorMatrix type="matrix" values="0 0 0 0 0 0 0 0 0 0 0 0 0 0 0 0 0 0 0.17 0"/>
<feBlend mode="normal" in2="shape" result="effect1_innerShadow_7_116"/>
</filter>
<filter id="filter4_biii_7_116" x="-9.92676" y="0.137939" width="52.0667" height="48.5149" filterUnits="userSpaceOnUse" color-interpolation-filters="sRGB">
<feFlood flood-opacity="0" result="BackgroundImageFix"/>
<feGaussianBlur in="BackgroundImage" stdDeviation="10"/>
<feComposite in2="SourceAlpha" operator="in" result="effect1_backgroundBlur_7_116"/>
<feBlend mode="normal" in="SourceGraphic" in2="effect1_backgroundBlur_7_116" result="shape"/>
<feColorMatrix in="SourceAlpha" type="matrix" values="0 0 0 0 0 0 0 0 0 0 0 0 0 0 0 0 0 0 127 0" result="hardAlpha"/>
<feOffset dx="-10" dy="10"/>
<feGaussianBlur stdDeviation="5"/>
<feComposite in2="hardAlpha" operator="arithmetic" k2="-1" k3="1"/>
<feColorMatrix type="matrix" values="0 0 0 0 1 0 0 0 0 1 0 0 0 0 1 0 0 0 0.15 0"/>
<feBlend mode="normal" in2="shape" result="effect2_innerShadow_7_116"/>
<feColorMatrix in="SourceAlpha" type="matrix" values="0 0 0 0 0 0 0 0 0 0 0 0 0 0 0 0 0 0 127 0" result="hardAlpha"/>
<feOffset dy="-10"/>
<feGaussianBlur stdDeviation="5"/>
<feComposite in2="hardAlpha" operator="arithmetic" k2="-1" k3="1"/>
<feColorMatrix type="matrix" values="0 0 0 0 0.156863 0 0 0 0 0.67451 0 0 0 0 0.25098 0 0 0 0.05 0"/>
<feBlend mode="normal" in2="effect2_innerShadow_7_116" result="effect3_innerShadow_7_116"/>
<feColorMatrix in="SourceAlpha" type="matrix" values="0 0 0 0 0 0 0 0 0 0 0 0 0 0 0 0 0 0 127 0" result="hardAlpha"/>
<feOffset dx="-3" dy="6"/>
<feGaussianBlur stdDeviation="7.5"/>
<feComposite in2="hardAlpha" operator="arithmetic" k2="-1" k3="1"/>
<feColorMatrix type="matrix" values="0 0 0 0 0.0770313 0 0 0 0 0.6375 0 0 0 0 0.178935 0 0 0 0.2 0"/>
<feBlend mode="normal" in2="effect3_innerShadow_7_116" result="effect4_innerShadow_7_116"/>
</filter>
<filter id="filter5_bdiii_7_116" x="-4.68866" y="14.0774" width="52.6893" height="48.6889" filterUnits="userSpaceOnUse" color-interpolation-filters="sRGB">
<feFlood flood-opacity="0" result="BackgroundImageFix"/>
<feGaussianBlur in="BackgroundImage" stdDeviation="10"/>
<feComposite in2="SourceAlpha" operator="in" result="effect1_backgroundBlur_7_116"/>
<feColorMatrix in="SourceAlpha" type="matrix" values="0 0 0 0 0 0 0 0 0 0 0 0 0 0 0 0 0 0 127 0" result="hardAlpha"/>
<feOffset dx="9" dy="5"/>
<feGaussianBlur stdDeviation="10"/>
<feColorMatrix type="matrix" values="0 0 0 0 0.0690278 0 0 0 0 0.295833 0 0 0 0 0.11166 0 0 0 0.08 0"/>
<feBlend mode="normal" in2="effect1_backgroundBlur_7_116" result="effect2_dropShadow_7_116"/>
<feBlend mode="normal" in="SourceGraphic" in2="effect2_dropShadow_7_116" result="shape"/>
<feColorMatrix in="SourceAlpha" type="matrix" values="0 0 0 0 0 0 0 0 0 0 0 0 0 0 0 0 0 0 127 0" result="hardAlpha"/>
<feOffset dx="-10" dy="10"/>
<feGaussianBlur stdDeviation="5"/>
<feComposite in2="hardAlpha" operator="arithmetic" k2="-1" k3="1"/>
<feColorMatrix type="matrix" values="0 0 0 0 1 0 0 0 0 1 0 0 0 0 1 0 0 0 0.15 0"/>
<feBlend mode="normal" in2="shape" result="effect3_innerShadow_7_116"/>
<feColorMatrix in="SourceAlpha" type="matrix" values="0 0 0 0 0 0 0 0 0 0 0 0 0 0 0 0 0 0 127 0" result="hardAlpha"/>
<feOffset dy="-10"/>
<feGaussianBlur stdDeviation="5"/>
<feComposite in2="hardAlpha" operator="arithmetic" k2="-1" k3="1"/>
<feColorMatrix type="matrix" values="0 0 0 0 0.156863 0 0 0 0 0.67451 0 0 0 0 0.25098 0 0 0 0.3 0"/>
<feBlend mode="normal" in2="effect3_innerShadow_7_116" result="effect4_innerShadow_7_116"/>
<feColorMatrix in="SourceAlpha" type="matrix" values="0 0 0 0 0 0 0 0 0 0 0 0 0 0 0 0 0 0 127 0" result="hardAlpha"/>
<feOffset dx="-3" dy="6"/>
<feGaussianBlur stdDeviation="7.5"/>
<feComposite in2="hardAlpha" operator="arithmetic" k2="-1" k3="1"/>
<feColorMatrix type="matrix" values="0 0 0 0 0.0770313 0 0 0 0 0.6375 0 0 0 0 0.178935 0 0 0 0.09 0"/>
<feBlend mode="normal" in2="effect4_innerShadow_7_116" result="effect5_innerShadow_7_116"/>
</filter>
<filter id="filter6_bdii_7_116" x="-8.56433" y="9.241" width="61.3336" height="56.6502" filterUnits="userSpaceOnUse" color-interpolation-filters="sRGB">
<feFlood flood-opacity="0" result="BackgroundImageFix"/>
<feGaussianBlur in="BackgroundImage" stdDeviation="10"/>
<feComposite in2="SourceAlpha" operator="in" result="effect1_backgroundBlur_7_116"/>
<feColorMatrix in="SourceAlpha" type="matrix" values="0 0 0 0 0 0 0 0 0 0 0 0 0 0 0 0 0 0 127 0" result="hardAlpha"/>
<feOffset dx="9" dy="5"/>
<feGaussianBlur stdDeviation="10"/>
<feColorMatrix type="matrix" values="0 0 0 0 0.0690278 0 0 0 0 0.295833 0 0 0 0 0.11166 0 0 0 0.08 0"/>
<feBlend mode="normal" in2="effect1_backgroundBlur_7_116" result="effect2_dropShadow_7_116"/>
<feBlend mode="normal" in="SourceGraphic" in2="effect2_dropShadow_7_116" result="shape"/>
<feColorMatrix in="SourceAlpha" type="matrix" values="0 0 0 0 0 0 0 0 0 0 0 0 0 0 0 0 0 0 127 0" result="hardAlpha"/>
<feOffset/>
<feGaussianBlur stdDeviation="5"/>
<feComposite in2="hardAlpha" operator="arithmetic" k2="-1" k3="1"/>
<feColorMatrix type="matrix" values="0 0 0 0 0.156863 0 0 0 0 0.67451 0 0 0 0 0.25098 0 0 0 0.2 0"/>
<feBlend mode="normal" in2="shape" result="effect3_innerShadow_7_116"/>
<feColorMatrix in="SourceAlpha" type="matrix" values="0 0 0 0 0 0 0 0 0 0 0 0 0 0 0 0 0 0 127 0" result="hardAlpha"/>
<feOffset dx="-3" dy="6"/>
<feGaussianBlur stdDeviation="7.5"/>
<feComposite in2="hardAlpha" operator="arithmetic" k2="-1" k3="1"/>
<feColorMatrix type="matrix" values="0 0 0 0 0.0770313 0 0 0 0 0.6375 0 0 0 0 0.178935 0 0 0 0.09 0"/>
<feBlend mode="normal" in2="effect3_innerShadow_7_116" result="effect4_innerShadow_7_116"/>
</filter>
<filter id="filter7_bdii_7_116" x="9.21307" y="-4.56067" width="56.96" height="52.96" filterUnits="userSpaceOnUse" color-interpolation-filters="sRGB">
<feFlood flood-opacity="0" result="BackgroundImageFix"/>
<feGaussianBlur in="BackgroundImage" stdDeviation="10"/>
<feComposite in2="SourceAlpha" operator="in" result="effect1_backgroundBlur_7_116"/>
<feColorMatrix in="SourceAlpha" type="matrix" values="0 0 0 0 0 0 0 0 0 0 0 0 0 0 0 0 0 0 127 0" result="hardAlpha"/>
<feOffset dx="9" dy="5"/>
<feGaussianBlur stdDeviation="10"/>
<feColorMatrix type="matrix" values="0 0 0 0 0.0690278 0 0 0 0 0.295833 0 0 0 0 0.11166 0 0 0 0.08 0"/>
<feBlend mode="normal" in2="effect1_backgroundBlur_7_116" result="effect2_dropShadow_7_116"/>
<feBlend mode="normal" in="SourceGraphic" in2="effect2_dropShadow_7_116" result="shape"/>
<feColorMatrix in="SourceAlpha" type="matrix" values="0 0 0 0 0 0 0 0 0 0 0 0 0 0 0 0 0 0 127 0" result="hardAlpha"/>
<feOffset dx="-10" dy="10"/>
<feGaussianBlur stdDeviation="5"/>
<feComposite in2="hardAlpha" operator="arithmetic" k2="-1" k3="1"/>
<feColorMatrix type="matrix" values="0 0 0 0 1 0 0 0 0 1 0 0 0 0 1 0 0 0 0.15 0"/>
<feBlend mode="normal" in2="shape" result="effect3_innerShadow_7_116"/>
<feColorMatrix in="SourceAlpha" type="matrix" values="0 0 0 0 0 0 0 0 0 0 0 0 0 0 0 0 0 0 127 0" result="hardAlpha"/>
<feOffset dx="3" dy="-6"/>
<feGaussianBlur stdDeviation="4.5"/>
<feComposite in2="hardAlpha" operator="arithmetic" k2="-1" k3="1"/>
<feColorMatrix type="matrix" values="0 0 0 0 0.0199306 0 0 0 0 0.341667 0 0 0 0 0.0521041 0 0 0 0.05 0"/>
<feBlend mode="normal" in2="effect3_innerShadow_7_116" result="effect4_innerShadow_7_116"/>
</filter>
<linearGradient id="paint0_linear_7_116" x1="40.2558" y1="10" x2="33.7553" y2="39.2187" gradientUnits="userSpaceOnUse">
<stop stop-color="#1D5C8E"/>
<stop offset="1" stop-color="#13447F"/>
</linearGradient>
<linearGradient id="paint1_linear_7_116" x1="18.5934" y1="34.0774" x2="17.677" y2="38.1979" gradientUnits="userSpaceOnUse">
<stop stop-color="#144780"/>
<stop offset="1" stop-color="#1D5C8E"/>
</linearGradient>
<linearGradient id="paint2_linear_7_116" x1="14.2746" y1="33.2485" x2="13.4832" y2="36.8099" gradientUnits="userSpaceOnUse">
<stop stop-color="#9BE15D"/>
<stop offset="1" stop-color="#00E3AE"/>
</linearGradient>
<linearGradient id="paint3_linear_7_116" x1="40.2558" y1="10" x2="33.7553" y2="39.2187" gradientUnits="userSpaceOnUse">
<stop stop-color="#1D5C8E"/>
<stop offset="1" stop-color="#13447F"/>
</linearGradient>
<linearGradient id="paint4_linear_7_116" x1="32.9192" y1="27.7474" x2="30.4889" y2="43.8332" gradientUnits="userSpaceOnUse">
<stop stop-color="#144680"/>
<stop offset="1" stop-color="#1C5A8D"/>
</linearGradient>
<linearGradient id="paint5_linear_7_116" x1="25.7828" y1="20.9182" x2="9.64533" y2="22.9778" gradientUnits="userSpaceOnUse">
<stop stop-color="#144680"/>
<stop offset="1" stop-color="#1C5A8D"/>
</linearGradient>
<linearGradient id="paint6_linear_7_116" x1="18.5934" y1="34.0774" x2="17.677" y2="38.1979" gradientUnits="userSpaceOnUse">
<stop stop-color="#144780"/>
<stop offset="1" stop-color="#1D5C8E"/>
</linearGradient>
<linearGradient id="paint7_linear_7_116" x1="14.2746" y1="33.2485" x2="13.4832" y2="36.8099" gradientUnits="userSpaceOnUse">
<stop stop-color="#9BE15D"/>
<stop offset="1" stop-color="#00E3AE"/>
</linearGradient>
<linearGradient id="paint8_linear_7_116" x1="36.2944" y1="15.4393" x2="34.3166" y2="24.3305" gradientUnits="userSpaceOnUse">
<stop stop-color="#144780"/>
<stop offset="1" stop-color="#1D5C8E"/>
</linearGradient>
</defs>
</svg>
